<?xml version="1.0" standalone="no"?>
<!DOCTYPE svg PUBLIC "-//W3C//DTD SVG 20010904//EN"
 "http://www.w3.org/TR/2001/REC-SVG-20010904/DTD/svg10.dtd">
<svg version="1.0" xmlns="http://www.w3.org/2000/svg"
 width="457.000000pt" height="115.000000pt" viewBox="0 0 457.000000 115.000000"
 preserveAspectRatio="xMidYMid meet">

<g transform="translate(0.000000,115.000000) scale(0.100000,-0.100000)"
fill="#000000" stroke="none">
<path d="M3090 1005 l-31 -45 28 0 c17 0 36 9 47 21 l18 21 23 -22 c13 -12 32
-20 45 -18 20 3 20 4 -10 46 -44 59 -78 58 -120 -3z"/>
<path d="M590 1000 c0 -6 40 -10 99 -10 56 0 103 4 106 10 4 6 -32 10 -99 10
-64 0 -106 -4 -106 -10z"/>
<path d="M590 960 c0 -6 40 -10 99 -10 56 0 103 4 106 10 4 6 -32 10 -99 10
-64 0 -106 -4 -106 -10z"/>
<path d="M2800 756 l0 -185 27 -21 c37 -29 75 -23 84 13 6 24 5 27 -17 27
l-24 0 0 175 0 175 -35 0 -35 0 0 -184z"/>
<path d="M595 920 c3 -6 48 -10 100 -10 52 0 97 4 100 10 4 6 -32 10 -100 10
-68 0 -104 -4 -100 -10z"/>
<path d="M3087 920 c-44 -13 -95 -57 -117 -100 -37 -72 -20 -181 37 -232 28
-26 104 -58 139 -58 135 -1 237 130 199 257 -31 106 -148 166 -258 133z m124
-75 c64 -34 87 -120 49 -182 -53 -87 -187 -79 -226 12 -18 44 -18 79 1 116 32
61 113 86 176 54z"/>
<path d="M2440 739 c-47 -100 -86 -186 -88 -190 -2 -5 14 -9 36 -9 36 0 40 3
57 40 l18 40 94 0 95 0 15 -40 c15 -37 19 -40 55 -40 21 0 38 3 38 7 0 4 -39
90 -87 190 -84 179 -87 183 -117 183 -30 0 -33 -4 -116 -181z m154 -1 l26 -58
-65 0 -65 0 32 65 c18 36 36 61 40 57 4 -4 18 -33 32 -64z"/>
<path d="M380 830 c-58 -43 -106 -86 -108 -94 -2 -9 13 -39 33 -66 23 -32 35
-56 31 -67 -4 -9 4 -31 19 -53 17 -25 31 -66 41 -121 9 -46 29 -112 45 -147
17 -37 29 -79 29 -104 0 -23 3 -38 7 -35 14 15 2 79 -25 134 -16 32 -33 83
-37 113 -11 86 -25 132 -51 168 -27 34 -25 52 6 52 31 0 83 -62 108 -128 29
-76 97 -170 142 -196 18 -10 30 -14 26 -7 -4 7 -2 20 6 29 12 15 11 16 -4 4
-9 -8 -25 -11 -35 -8 -29 9 -123 142 -123 172 0 5 23 -22 51 -59 29 -37 55
-67 59 -67 4 0 47 29 95 65 60 45 96 65 116 65 53 0 33 -30 -61 -92 -14 -9
-38 -28 -55 -43 l-30 -27 37 26 c20 14 39 26 42 26 14 0 4 -40 -25 -100 -33
-69 -53 -134 -38 -124 5 3 9 14 9 24 0 10 16 51 35 91 19 41 35 85 35 99 1 18
13 34 43 56 41 30 43 34 44 83 1 41 -3 55 -18 64 -11 7 -19 23 -19 40 0 20 -7
31 -25 39 -14 6 -25 17 -25 24 0 8 -11 21 -24 30 -16 10 -26 27 -28 46 -4 39
-30 58 -57 41 -15 -9 -22 -8 -35 5 -27 28 -18 8 23 -47 25 -33 37 -59 34 -69
-5 -12 -12 -9 -32 18 -66 86 -67 87 -90 66 -25 -22 -28 -11 -5 15 15 17 15 20
0 44 -9 14 -22 25 -30 25 -24 0 -187 -130 -179 -143 3 -7 18 -27 31 -44 24
-32 24 -33 4 -33 -25 0 -97 94 -88 115 7 18 204 165 222 165 6 0 26 -17 44
-37 33 -40 31 -28 -4 20 -11 15 -29 27 -40 26 -12 0 -68 -36 -126 -79z m315
-88 c0 -40 -14 -42 -40 -8 -17 23 -18 28 -5 36 27 18 45 7 45 -28z m36 -52
c25 -14 24 -39 -5 -73 -22 -27 -24 -28 -40 -11 -18 18 -15 56 6 81 13 16 14
16 39 3z m-131 -20 c21 -11 43 -67 29 -75 -5 -4 -9 5 -9 20 0 18 -9 31 -32 45
-33 20 -23 29 12 10z m-71 -29 c6 -10 8 -21 5 -24 -9 -9 19 -45 31 -41 16 7
38 -23 31 -41 -17 -44 -116 26 -116 82 0 46 30 61 49 24z m79 -25 c3 -12 -4
-9 -22 9 -32 32 -34 42 -3 23 12 -9 23 -23 25 -32z m180 12 c18 -18 15 -45
-10 -78 -17 -23 -25 -27 -40 -19 -22 12 -23 40 -3 79 16 32 33 38 53 18z
m-210 -23 c-3 -3 -9 2 -12 12 -6 14 -5 15 5 6 7 -7 10 -15 7 -18z m260 -68 c5
-23 -15 -47 -39 -47 -14 0 -19 7 -19 28 0 16 3 32 7 36 13 13 48 1 51 -17z"/>
<path d="M494 635 c-16 -40 61 -124 88 -97 14 14 1 32 -17 25 -19 -7 -56 37
-49 59 6 21 -14 34 -22 13z"/>
<path d="M400 799 l-35 -30 37 23 c21 13 38 26 38 31 0 10 -2 9 -40 -24z"/>
<path d="M1282 429 c-109 -54 -130 -193 -43 -280 34 -35 91 -59 136 -59 25 0
120 44 130 60 4 7 -1 21 -13 32 l-20 21 -30 -22 c-36 -25 -107 -28 -140 -5
-29 20 -52 66 -52 101 2 92 118 147 188 88 l29 -24 22 23 21 22 -22 22 c-51
46 -136 55 -206 21z"/>
<path d="M1617 429 c-69 -36 -107 -123 -87 -198 36 -134 192 -180 297 -88 100
88 78 229 -44 291 -43 22 -119 20 -166 -5z m143 -54 c42 -21 60 -53 60 -103 0
-37 -6 -50 -34 -78 -29 -29 -41 -34 -80 -34 -59 0 -104 37 -113 92 -15 98 80
168 167 123z"/>
<path d="M1947 443 c-4 -3 -7 -82 -7 -175 l0 -168 35 0 34 0 3 117 3 118 75
-117 c70 -110 77 -118 108 -118 l32 0 0 175 0 175 -30 0 -29 0 -3 -112 -3
-113 -75 113 c-68 102 -77 112 -106 112 -17 0 -34 -3 -37 -7z"/>
<path d="M2337 432 c-16 -10 -32 -32 -39 -53 -16 -56 4 -88 80 -125 77 -38 86
-46 77 -73 -5 -17 -14 -21 -46 -21 -22 0 -50 5 -61 11 -17 9 -24 7 -42 -11
-21 -21 -21 -21 -1 -36 30 -22 94 -36 133 -29 19 4 48 19 64 35 52 52 30 124
-49 159 -89 40 -106 58 -84 85 16 19 72 21 89 4 10 -10 18 -7 38 13 l26 26
-35 16 c-45 22 -114 21 -150 -1z"/>
<path d="M2573 434 c-3 -8 -3 -64 -1 -124 6 -123 25 -167 81 -197 43 -22 115
-21 155 2 55 33 72 83 72 218 l0 117 -29 0 -29 0 -3 -119 c-4 -110 -6 -121
-28 -145 -17 -18 -35 -26 -57 -26 -78 0 -94 30 -94 180 l0 110 -30 0 c-19 0
-33 -6 -37 -16z"/>
<path d="M2940 276 l0 -176 30 0 30 0 0 110 c0 61 3 110 8 110 4 0 27 -36 51
-80 25 -44 48 -80 52 -80 5 0 30 37 56 83 l48 82 3 -112 3 -113 35 0 34 0 -2
173 -3 172 -35 0 c-33 0 -38 -4 -81 -78 -26 -43 -50 -79 -55 -80 -4 -1 -28 34
-53 78 -44 76 -48 80 -84 83 l-37 3 0 -175z"/>
<path d="M3357 444 c-4 -4 -7 -83 -7 -176 l0 -168 35 0 35 0 -2 172 -3 173
-25 3 c-14 2 -29 0 -33 -4z"/>
<path d="M3490 275 l0 -177 99 4 c107 3 132 13 175 71 31 42 33 141 4 191 -35
61 -76 80 -185 84 l-93 4 0 -177z m193 95 c37 -29 52 -83 38 -131 -17 -55 -52
-79 -117 -79 l-54 0 0 115 0 115 54 0 c38 0 60 -6 79 -20z"/>
<path d="M3929 427 c-81 -43 -114 -147 -73 -232 34 -71 131 -118 202 -97 92
28 142 90 142 177 0 136 -146 217 -271 152z m160 -62 c35 -30 55 -82 45 -119
-3 -15 -20 -40 -36 -56 -24 -25 -38 -30 -77 -30 -53 0 -84 18 -106 60 -56 109
81 223 174 145z"/>
<path d="M4260 275 l0 -175 30 0 30 0 0 70 c0 66 1 70 23 70 38 0 65 -28 83
-85 17 -52 19 -55 51 -55 18 0 33 2 33 3 0 17 -43 124 -55 137 -13 15 -12 19
9 39 33 31 39 64 22 106 -20 46 -64 65 -156 65 l-70 0 0 -175z m148 109 c26
-18 29 -56 6 -78 -9 -9 -32 -16 -55 -16 l-39 0 0 55 0 55 33 0 c18 0 43 -7 55
-16z"/>
</g>
</svg>
