<svg width="15" height="13" viewBox="0 0 15 13" fill="none" xmlns="http://www.w3.org/2000/svg">
<path d="M14.8494 5.55382L8.22482 0.0943298C8.10186 -0.0071134 7.92971 -0.0286316 7.78523 0.0389972C7.64075 0.106626 7.54853 0.25418 7.54853 0.41403V3.29133C4.33309 3.40814 2.12286 4.54246 0.973168 6.66662C-0.0166722 8.49875 -0.00745005 10.669 0.00177206 12.1046C0.00177206 12.2214 0.00177206 12.3321 0.00177206 12.4366C0.00177206 12.6241 0.127808 12.7901 0.31225 12.8393C0.346064 12.8485 0.382953 12.8516 0.416767 12.8516C0.564321 12.8516 0.702653 12.7747 0.776429 12.6426C3.02048 8.68627 4.86797 8.49567 7.54546 8.48645V11.3545C7.54546 11.5144 7.63768 11.6619 7.78523 11.7296C7.93279 11.7972 8.10186 11.7757 8.2279 11.6742L14.8494 6.19629C14.9447 6.11637 15 5.99956 15 5.87659C15 5.75363 14.9447 5.63375 14.8494 5.55382ZM8.37852 10.4723V8.07146C8.37852 7.96079 8.33549 7.85627 8.25556 7.77942C8.17871 7.70257 8.07112 7.65646 7.96353 7.65646C6.29125 7.65646 5.00938 7.70257 3.76439 8.28357C2.68848 8.78463 1.75705 9.63614 0.83791 10.9733C0.874799 9.75296 1.03465 8.29586 1.70171 7.06317C2.75918 5.10809 4.80649 4.13976 7.96353 4.1121C8.19101 4.10902 8.37545 3.92458 8.37545 3.6971V1.2932L13.9302 5.87659L8.37852 10.4723Z" fill="white"/>
</svg>
