<?xml version="1.0" standalone="no"?>
<!DOCTYPE svg PUBLIC "-//W3C//DTD SVG 20010904//EN"
 "http://www.w3.org/TR/2001/REC-SVG-20010904/DTD/svg10.dtd">
<svg version="1.0" xmlns="http://www.w3.org/2000/svg"
 width="830.000000pt" height="830.000000pt" viewBox="0 0 830.000000 830.000000"
 preserveAspectRatio="xMidYMid meet">

<g transform="translate(0.000000,830.000000) scale(0.100000,-0.100000)"
fill="#000000" stroke="none">
<path d="M4037 7633 c-13 -12 -7 -41 10 -47 21 -8 48 17 40 38 -6 16 -38 22
-50 9z"/>
<path d="M3693 7604 c-3 -8 2 -23 11 -32 15 -15 17 -15 32 0 21 21 11 48 -16
48 -11 0 -23 -7 -27 -16z"/>
<path d="M4377 7613 c-13 -12 -7 -41 10 -47 21 -8 48 17 40 38 -6 16 -38 22
-50 9z"/>
<path d="M3364 7546 c-9 -24 4 -48 23 -44 12 2 18 12 18 28 0 29 -32 41 -41
16z"/>
<path d="M4707 7547 c-7 -20 1 -27 30 -27 18 0 24 5 21 18 -4 21 -43 28 -51 9z"/>
<path d="M3034 7446 c-10 -26 4 -48 28 -44 17 2 23 10 23 28 0 18 -6 26 -23
28 -13 2 -25 -3 -28 -12z"/>
<path d="M2723 7304 c-3 -8 2 -23 11 -32 15 -15 17 -15 32 0 21 21 11 48 -16
48 -11 0 -23 -7 -27 -16z"/>
<path d="M4172 7218 c-17 -17 -15 -44 4 -62 14 -14 78 -16 560 -16 357 0 552
4 565 10 21 12 25 50 7 68 -17 17 -1119 17 -1136 0z"/>
<path d="M2440 7135 c-17 -20 -5 -45 20 -45 11 0 23 7 26 15 6 15 -11 45 -26
45 -4 0 -13 -7 -20 -15z"/>
<path d="M5633 7134 c-3 -8 2 -23 11 -32 15 -15 17 -15 32 0 21 21 11 48 -16
48 -11 0 -23 -7 -27 -16z"/>
<path d="M4172 6998 c-16 -16 -15 -43 2 -57 9 -8 169 -10 577 -9 l564 3 3 23
c8 53 24 52 -577 52 -420 0 -560 -3 -569 -12z"/>
<path d="M2170 6925 c-11 -13 -11 -19 3 -32 21 -21 49 -9 45 19 -4 28 -30 35
-48 13z"/>
<path d="M5904 6925 c-4 -9 -2 -21 4 -27 16 -16 47 -5 47 17 0 26 -42 34 -51
10z"/>
<path d="M4182 6784 c-24 -17 -28 -44 -10 -62 17 -17 1119 -17 1136 0 22 22
14 58 -14 68 -16 7 -230 10 -558 10 -460 -1 -535 -3 -554 -16z"/>
<path d="M6152 6701 c-21 -13 -10 -46 16 -49 27 -4 40 22 22 43 -14 17 -20 18
-38 6z"/>
<path d="M1930 6685 c-11 -13 -11 -19 3 -32 21 -21 49 -9 45 19 -4 28 -30 35
-48 13z"/>
<path d="M3630 6683 c-19 -10 -98 -66 -175 -123 -77 -57 -324 -241 -550 -408
-225 -167 -421 -314 -434 -325 -32 -29 -61 -94 -61 -138 0 -54 30 -103 224
-363 97 -131 180 -244 183 -252 3 -7 -5 -27 -17 -45 -24 -33 -37 -102 -26
-142 3 -13 49 -79 101 -147 53 -68 104 -139 114 -159 57 -112 109 -342 156
-689 54 -396 59 -413 217 -697 160 -286 172 -330 173 -582 l0 -182 24 -6 c13
-3 26 -3 30 0 3 4 6 88 5 188 -1 262 -19 321 -200 643 -133 239 -140 263 -204
729 -26 193 -65 388 -97 484 -38 117 -77 187 -164 296 -44 55 -87 113 -95 128
-19 36 -11 77 23 117 21 26 32 30 74 30 95 0 222 -73 334 -191 124 -132 186
-246 299 -549 99 -265 166 -385 366 -655 181 -245 233 -294 431 -404 41 -23
92 -58 112 -76 39 -35 67 -37 67 -5 0 18 -61 79 -99 100 -12 6 -21 15 -21 19
0 8 573 438 618 465 13 8 14 -2 9 -76 -13 -164 -67 -306 -241 -628 -49 -91
-99 -193 -112 -226 -25 -68 -49 -189 -60 -303 -6 -67 -5 -73 11 -68 9 4 22 7
29 7 8 0 16 35 24 108 19 183 38 232 196 527 151 280 207 444 210 614 l1 94
215 161 c118 88 223 173 233 188 21 28 34 111 23 151 -3 13 -17 40 -31 61 -25
36 -25 39 -10 63 31 47 65 153 65 204 0 30 -8 65 -20 89 -32 63 -121 120 -188
120 l-38 0 18 73 c22 81 19 156 -6 205 -39 75 -148 142 -231 142 l-35 0 0 63
c0 38 -7 77 -19 102 -36 80 -141 146 -237 149 l-51 1 25 55 c80 179 0 363
-171 395 -57 11 -131 -12 -197 -61 l-59 -43 -62 84 c-35 47 -66 85 -70 85 -14
0 -30 -30 -23 -42 4 -7 101 -140 216 -294 l208 -282 -29 -63 c-16 -35 -32 -73
-35 -83 -7 -19 -7 -19 -25 0 -10 10 -120 157 -245 327 -146 196 -232 305 -239
300 -7 -4 -63 -47 -124 -95 -101 -79 -143 -103 -143 -80 0 4 45 68 100 142 55
74 98 140 96 146 -9 26 -178 245 -196 254 -10 5 -37 10 -58 10 -37 0 -77 -27
-489 -331 -246 -182 -463 -347 -482 -366 -30 -31 -33 -40 -29 -78 4 -35 31
-76 163 -256 87 -118 163 -220 168 -226 5 -7 -13 -3 -39 9 -33 15 -71 23 -117
24 l-68 1 -196 264 c-107 144 -199 277 -204 293 -13 43 -2 89 29 124 24 26
997 752 1126 839 27 19 61 33 77 33 71 0 92 -19 259 -245 134 -180 164 -214
176 -205 8 7 14 18 14 25 0 6 -30 51 -67 100 -38 48 -86 113 -108 145 -86 123
-131 179 -163 201 -46 31 -134 37 -182 12z m1084 -757 c52 -39 76 -92 76 -168
0 -69 -18 -118 -71 -195 l-32 -46 -22 24 c-11 14 -70 92 -130 174 l-109 148
34 29 c91 75 184 88 254 34z m231 -451 c53 -31 82 -66 95 -116 18 -65 3 -116
-53 -177 -45 -50 -107 -159 -107 -189 0 -18 -37 -35 -75 -35 -64 0 -141 64
-165 138 -38 115 41 351 133 398 43 22 116 14 172 -19z m-828 -60 c116 -35
228 -141 272 -259 26 -72 36 -176 18 -200 -24 -33 -47 -13 -47 41 -1 178 -122
336 -280 368 -61 12 -70 16 -70 34 0 36 27 40 107 16z m-379 -104 c73 -38 132
-122 132 -188 0 -19 -10 -36 -32 -54 l-32 -26 49 -59 c27 -33 69 -83 93 -112
l44 -53 24 26 c30 33 60 32 116 -4 52 -33 97 -101 105 -159 6 -46 -19 -82 -80
-111 -55 -26 -117 -27 -192 -1 -85 29 -145 71 -233 165 -114 120 -182 268
-182 395 0 71 49 152 115 188 27 15 30 15 73 -7z m368 -45 c89 -42 146 -114
162 -208 12 -69 5 -98 -24 -98 -21 0 -24 5 -24 33 0 109 -67 204 -164 232 -59
17 -71 27 -62 50 8 22 54 18 112 -9z m1109 -95 c47 -22 89 -64 104 -104 30
-80 -5 -220 -76 -299 -25 -29 -59 -80 -75 -115 -27 -56 -34 -64 -70 -73 -72
-20 -144 18 -179 95 -30 68 -33 123 -10 217 57 243 167 343 306 279z m-1159
-37 c46 -22 76 -73 72 -121 -2 -30 -7 -38 -23 -38 -13 0 -21 9 -25 30 -11 50
-28 73 -65 85 -22 7 -35 18 -35 29 0 35 23 40 76 15z m1411 -390 c77 -44 93
-116 53 -225 -29 -76 -80 -135 -131 -150 -112 -34 -220 86 -189 210 22 87 87
173 146 191 37 11 69 5 121 -26z m-1593 -734 c147 -197 278 -368 293 -380 15
-12 41 -20 64 -20 34 0 76 29 411 277 505 374 565 420 577 440 9 17 11 17 45
0 50 -23 127 -22 177 3 46 24 51 22 73 -24 21 -45 20 -94 -3 -131 -15 -26
-1089 -833 -1140 -858 -20 -10 -118 44 -176 95 -77 67 -333 411 -436 586 -55
92 -66 118 -114 247 -18 50 -36 98 -40 108 -4 9 -5 17 -2 17 3 0 125 -162 271
-360z"/>
<path d="M3674 5258 c-12 -5 -32 -28 -44 -50 -19 -35 -22 -50 -18 -114 16
-245 325 -539 502 -479 48 17 66 33 66 59 0 31 -51 108 -83 125 -24 13 -28 12
-58 -13 -54 -46 -71 -36 -186 104 -84 102 -103 131 -103 158 0 26 6 36 30 50
33 19 37 39 16 81 -15 28 -81 92 -94 90 -4 0 -17 -5 -28 -11z"/>
<path d="M1726 6424 c-8 -8 -13 -21 -9 -30 8 -22 47 -13 51 12 4 27 -22 38
-42 18z"/>
<path d="M6353 6424 c-3 -8 2 -23 11 -32 15 -15 17 -15 32 0 21 21 11 48 -16
48 -11 0 -23 -7 -27 -16z"/>
<path d="M3145 6104 c-128 -94 -170 -131 -170 -147 0 -12 7 -23 15 -25 22 -4
365 255 365 276 0 41 -44 19 -210 -104z"/>
<path d="M6543 6153 c-7 -3 -13 -16 -13 -29 0 -19 5 -24 25 -24 20 0 25 5 25
24 0 25 -15 36 -37 29z"/>
<path d="M1552 6141 c-20 -12 -10 -46 14 -49 25 -4 40 24 23 44 -13 16 -19 17
-37 5z"/>
<path d="M6674 5836 c-9 -24 4 -48 23 -44 12 2 18 12 18 28 0 29 -32 41 -41
16z"/>
<path d="M1407 5833 c-13 -12 -7 -41 10 -47 21 -8 48 17 40 38 -6 16 -38 22
-50 9z"/>
<path d="M6774 5516 c-9 -24 4 -48 23 -44 12 2 18 12 18 28 0 29 -32 41 -41
16z"/>
<path d="M1307 5514 c-14 -15 -6 -43 14 -49 25 -8 42 6 37 31 -3 19 -38 31
-51 18z"/>
<path d="M6834 5185 c-8 -21 2 -45 19 -45 8 0 20 7 27 15 10 12 10 18 0 30 -7
8 -19 15 -27 15 -7 0 -16 -7 -19 -15z"/>
<path d="M1250 5175 c-11 -13 -11 -19 3 -32 21 -21 49 -9 45 19 -4 28 -30 35
-48 13z"/>
<path d="M6850 4835 c0 -20 5 -25 24 -25 25 0 36 15 29 38 -3 6 -16 12 -29 12
-19 0 -24 -5 -24 -25z"/>
<path d="M1224 4835 c-4 -9 -2 -21 4 -27 16 -16 47 -5 47 17 0 26 -42 34 -51
10z"/>
<path d="M6831 4512 c-8 -15 -7 -23 4 -32 21 -18 47 -4 43 22 -4 29 -34 35
-47 10z"/>
<path d="M1252 4507 c-9 -10 -8 -18 2 -32 18 -25 48 -13 44 17 -4 27 -30 35
-46 15z"/>
<path d="M6770 4185 c-11 -13 -11 -19 3 -32 21 -21 49 -9 45 19 -4 28 -30 35
-48 13z"/>
<path d="M1314 4175 c-8 -21 2 -45 19 -45 8 0 20 7 27 15 10 12 10 18 0 30 -7
8 -19 15 -27 15 -7 0 -16 -7 -19 -15z"/>
<path d="M6670 3865 c-18 -21 -5 -47 22 -43 26 3 37 36 16 49 -18 12 -24 11
-38 -6z"/>
<path d="M1417 3864 c-14 -15 -6 -43 14 -49 25 -8 42 6 37 31 -3 19 -38 31
-51 18z"/>
<path d="M6523 3554 c-3 -8 2 -23 11 -32 15 -15 17 -15 32 0 21 21 11 48 -16
48 -11 0 -23 -7 -27 -16z"/>
<path d="M1554 3545 c-4 -9 -2 -21 4 -27 16 -16 47 -5 47 17 0 26 -42 34 -51
10z"/>
<path d="M6351 3276 c-17 -20 -2 -48 23 -44 24 3 34 37 14 49 -18 12 -24 11
-37 -5z"/>
<path d="M1740 3266 c-18 -22 -5 -48 22 -44 17 2 23 10 23 28 0 29 -26 38 -45
16z"/>
<path d="M1936 3004 c-21 -20 -20 -41 1 -53 23 -12 53 4 53 29 0 29 -35 44
-54 24z"/>
<path d="M6121 2951 c-13 -24 9 -57 33 -48 23 9 31 34 16 52 -17 20 -37 19
-49 -4z"/>
<path d="M2177 2753 c-13 -12 -7 -44 9 -50 20 -7 45 22 37 43 -5 14 -35 19
-46 7z"/>
<path d="M5910 2745 c-17 -20 -5 -45 20 -45 11 0 23 7 26 15 6 15 -11 45 -26
45 -4 0 -13 -7 -20 -15z"/>
<path d="M2387 2563 c-13 -12 -7 -41 10 -47 21 -8 48 17 40 38 -6 16 -38 22
-50 9z"/>
<path d="M5584 2555 c-9 -23 3 -45 26 -45 25 0 37 25 20 45 -16 19 -39 19 -46
0z"/>
<path d="M2682 2391 c-21 -13 -10 -46 16 -49 27 -4 40 22 22 43 -14 17 -20 18
-38 6z"/>
<path d="M5297 2383 c-13 -12 -7 -41 10 -47 21 -9 46 16 37 37 -6 17 -35 23
-47 10z"/>
<path d="M4642 2205 l-62 -95 53 0 c49 0 56 3 97 45 l44 45 46 -45 c41 -41 50
-45 93 -45 26 0 47 4 47 8 0 5 -27 48 -61 95 l-60 87 -67 0 -67 0 -63 -95z"/>
<path d="M2990 2245 c-18 -21 -4 -47 22 -43 29 4 35 34 10 47 -15 8 -23 7 -32
-4z"/>
<path d="M4042 1697 c3 -340 5 -375 21 -400 29 -44 75 -67 135 -67 79 0 92 10
92 73 l0 53 -35 -4 c-67 -8 -65 -17 -65 369 l0 349 -75 0 -76 0 3 -373z"/>
<path d="M4632 2032 c-112 -40 -202 -125 -254 -239 -19 -40 -23 -65 -22 -153
0 -92 3 -112 27 -163 34 -74 122 -166 190 -200 79 -39 138 -50 232 -45 71 4
95 10 158 41 264 130 316 461 106 662 -86 82 -149 108 -279 112 -84 3 -116 0
-158 -15z m224 -137 c106 -31 186 -140 186 -253 0 -231 -271 -354 -444 -202
-124 109 -125 291 -1 399 75 67 161 85 259 56z"/>
<path d="M3441 1958 c-71 -153 -313 -663 -327 -690 l-15 -28 86 0 86 0 36 80
36 80 197 0 197 0 37 -80 38 -80 83 0 84 0 -19 43 c-11 23 -95 202 -188 397
l-168 355 -62 3 -62 3 -39 -83z m167 -283 c34 -74 62 -137 62 -140 0 -3 -59
-5 -131 -5 -78 0 -129 4 -127 10 12 36 124 270 129 270 3 0 34 -61 67 -135z"/>
<path d="M942 1040 c-103 -37 -174 -105 -224 -215 -17 -39 -22 -69 -23 -135 0
-75 4 -93 31 -150 39 -82 101 -144 184 -184 59 -28 74 -31 165 -31 93 0 105 2
165 32 36 17 81 48 100 68 l34 35 -46 47 -46 46 -46 -40 c-76 -67 -172 -81
-261 -39 -151 71 -191 248 -83 371 96 109 256 116 357 14 l34 -33 43 49 c24
28 44 53 44 57 0 16 -111 90 -164 108 -73 26 -192 26 -264 0z"/>
<path d="M1659 1046 c-116 -45 -202 -125 -239 -224 -32 -86 -26 -215 14 -295
36 -71 108 -140 184 -175 50 -24 69 -27 157 -27 91 0 106 3 165 31 83 39 145
101 184 184 27 57 31 76 31 150 0 75 -4 93 -32 152 -38 81 -102 146 -180 185
-49 23 -72 28 -153 30 -62 2 -107 -2 -131 -11z m216 -135 c80 -36 145 -136
145 -221 0 -92 -80 -202 -166 -228 -141 -41 -283 40 -314 181 -24 103 34 217
133 266 55 26 147 27 202 2z"/>
<path d="M3115 1042 c-141 -67 -166 -243 -49 -340 21 -18 81 -49 132 -69 51
-20 104 -47 118 -59 29 -27 31 -63 6 -94 -35 -44 -155 -37 -225 13 l-29 20
-51 -51 -50 -50 49 -32 c65 -41 133 -60 213 -60 81 0 126 12 171 45 55 41 80
90 80 160 0 110 -52 166 -207 225 -122 46 -155 78 -134 133 23 59 109 71 193
27 l41 -21 45 45 c52 52 51 58 -25 96 -66 34 -218 40 -278 12z"/>
<path d="M6470 1051 c-57 -19 -129 -62 -169 -102 -179 -180 -126 -477 107
-591 62 -31 74 -33 167 -33 88 0 107 3 157 27 112 52 194 154 218 271 32 159
-54 326 -208 403 -49 24 -71 28 -152 31 -52 1 -106 -1 -120 -6z m194 -135
c161 -67 203 -280 79 -398 -118 -112 -309 -79 -386 67 -30 56 -29 155 0 211
25 46 81 100 127 120 41 17 138 18 180 0z"/>
<path d="M2270 690 l0 -360 65 0 65 0 0 252 c0 214 2 250 14 238 7 -8 82 -122
166 -252 l152 -238 69 0 69 0 0 360 0 360 -70 0 -70 0 -2 -231 -3 -230 -150
230 -149 231 -78 0 -78 0 0 -360z"/>
<path d="M3582 803 c3 -236 4 -250 27 -301 33 -73 116 -147 188 -168 118 -34
254 -2 329 78 78 82 94 156 94 428 l0 210 -69 0 -70 0 -3 -232 c-3 -213 -5
-236 -24 -273 -66 -127 -256 -121 -315 9 -16 36 -19 69 -19 269 l0 227 -71 0
-70 0 3 -247z"/>
<path d="M4340 690 l0 -360 65 0 65 0 2 243 3 242 108 -193 109 -192 111 187
112 188 3 -238 2 -237 70 0 70 0 0 360 0 360 -78 0 -78 0 -100 -171 c-55 -94
-104 -172 -109 -173 -4 0 -51 77 -104 171 l-96 173 -77 0 -78 0 0 -360z"/>
<path d="M5190 690 l0 -360 70 0 70 0 0 360 0 360 -70 0 -70 0 0 -360z"/>
<path d="M5470 690 l0 -362 193 4 c186 3 194 4 248 31 69 33 132 99 167 175
23 49 27 70 27 152 0 83 -4 103 -29 157 -33 73 -103 144 -174 176 -42 20 -67
22 -239 25 l-193 4 0 -362z m340 240 c47 -13 106 -63 133 -113 17 -33 22 -59
22 -122 0 -93 -22 -144 -80 -193 -48 -39 -96 -52 -194 -52 l-81 0 0 245 0 245
83 0 c45 0 98 -4 117 -10z"/>
<path d="M7070 690 l0 -360 65 0 64 0 3 143 3 142 30 3 c46 6 101 -15 129 -49
14 -17 40 -76 58 -134 l33 -105 76 0 77 0 -23 58 c-12 31 -35 91 -50 132 -17
46 -41 87 -60 106 l-32 30 34 22 c104 69 118 215 29 307 -54 57 -89 65 -278
65 l-158 0 0 -360z m322 222 c27 -27 33 -40 33 -76 0 -78 -65 -121 -170 -114
l-50 3 -3 114 -3 113 81 -3 c75 -4 82 -6 112 -37z"/>
</g>
</svg>
